<svg width="69" height="61" viewBox="0 0 69 61" fill="none" xmlns="http://www.w3.org/2000/svg">
<path d="M62.1789 35.8906C61.8273 37.1797 60.6555 38 59.3664 38H25.0305L25.8508 41.75H57.257C59.0148 41.75 60.4211 43.5078 59.9523 45.2656L59.3664 48.0781C61.593 49.1328 63.1164 51.3594 63.1164 53.9375C63.1164 57.5703 60.0695 60.5 56.5539 60.5C52.9211 60.5 49.9914 57.5703 49.9914 53.9375C49.9914 52.1797 50.6945 50.5391 51.8664 49.25H27.3742C28.5461 50.5391 29.3664 52.1797 29.3664 53.9375C29.3664 57.5703 26.3195 60.5 22.8039 60.5C19.1711 60.5 16.2414 57.5703 16.2414 53.9375C16.2414 51.5938 17.5305 49.4844 19.5227 48.3125L11.2023 8H3.1164C1.47578 8 0.303902 6.82812 0.303902 5.1875V3.3125C0.303902 1.78906 1.47578 0.5 3.1164 0.5H15.0695C16.3586 0.5 17.5305 1.55469 17.882 2.84375L18.9367 8H64.8742C66.7492 8 68.0383 9.75781 67.6867 11.5156L62.1789 35.8906Z" fill="white"/>
</svg>
